<?xml version="1.0" encoding="UTF-8"?> <svg xmlns="http://www.w3.org/2000/svg" width="32" height="32" viewBox="0 0 32 32" fill="none"><g clip-path="url(#clip0_12497_4464)"><path d="M23.8926 17.9916L19.3584 20.1586L19.3486 20.1625L19.3389 20.1684C18.4628 20.6855 17.4782 20.9858 16.4668 21.0473L16.0322 21.059H16.0293C14.8054 21.0621 13.6032 20.7338 12.5508 20.1088L12.541 20.103L12.5312 20.0981L8.1084 17.9916L7.75098 17.8207V23.4868L7.76465 23.8315C7.89357 25.4297 8.91476 26.8221 10.4004 27.4252L10.7256 27.5424L10.7324 27.5444C12.4442 28.0334 14.2179 28.2696 15.998 28.2485V28.2495L16.001 28.2485L16.0039 28.2495L16.0029 28.2485C17.5606 28.267 19.1134 28.0891 20.624 27.7162L21.2695 27.5444L21.2754 27.5424C23.0464 26.9855 24.2515 25.3432 24.251 23.4868V17.8207L23.8926 17.9916ZM5.58398 16.7885L5.44141 16.7211L2.70898 15.4194H2.70996C2.03585 15.0569 1.46263 14.5353 1.03906 13.9018L0.867188 13.6245C-0.373353 11.4549 0.317011 8.70824 2.39746 7.37445L2.60352 7.25043L2.60645 7.24847C2.63359 7.2324 2.66485 7.21593 2.69922 7.19867L12.6416 2.45453L12.6504 2.45062L12.6582 2.44574C14.7658 1.2351 17.3636 1.25699 19.4502 2.50336L19.46 2.51019L19.4707 2.51508L29.2979 7.19574V7.19672C30.5275 7.81114 31.6148 9.05772 31.7393 10.3959L31.751 10.6645V26.6664C31.7509 27.2647 31.2653 27.7495 30.667 27.7495C30.0689 27.7492 29.584 27.2646 29.584 26.6664V15.2729L29.2266 15.4438L26.5596 16.7182L26.417 16.7866V23.4868L26.4121 23.7485C26.3046 26.3646 24.6167 28.6567 22.1504 29.5356L21.9062 29.6166C20.228 30.1001 18.4959 30.3674 16.752 30.4116L16.0039 30.4164H15.998C14.0032 30.4367 12.0161 30.1657 10.0996 29.6118H10.1006C7.41569 28.776 5.58568 26.2918 5.58398 23.4799V16.7885ZM29.584 11.3032C29.5729 10.3866 29.0718 9.54606 28.2705 9.10101L28.2637 9.09711L28.2559 9.09418L18.4268 4.41058C17.0627 3.57901 15.3742 3.50868 13.9531 4.20844L13.6885 4.35004L3.69531 9.12347L3.6875 9.12738L3.67969 9.13226C3.3242 9.33564 3.02479 9.62267 2.80664 9.96722L2.71777 10.1176C2.1019 11.2597 2.46323 12.6676 3.51465 13.3803L3.73438 13.5131L3.74512 13.519L13.5703 18.1918C15.0249 19.0861 16.8528 19.1093 18.3301 18.2524L28.375 13.4584L28.3877 13.4526L28.3994 13.4448C29.1372 12.9843 29.5854 12.1759 29.584 11.3061V11.3032Z" fill="white" stroke="#00283B" stroke-width="0.5"></path></g><defs><clipPath id="clip0_12497_4464"><rect width="32" height="32" fill="white"></rect></clipPath></defs></svg> 