<?xml version="1.0" encoding="UTF-8"?> <svg xmlns="http://www.w3.org/2000/svg" width="40" height="40" viewBox="0 0 40 40" fill="none"><g clip-path="url(#clip0_12604_6158)"><path d="M29.8936 22.546L24.2246 25.254L24.2148 25.2589L24.2051 25.2647C23.0226 25.9626 21.6831 26.3471 20.3135 26.3839L20.0391 26.3868H20.0371C18.4959 26.3907 16.9825 25.9764 15.6572 25.1895L15.6475 25.1837L15.6367 25.1788L10.1084 22.546L9.75098 22.3751V29.3585L9.75488 29.5723C9.8406 31.7059 11.2134 33.5772 13.2227 34.2999L13.4258 34.3682L13.4326 34.3702C15.5678 34.9802 17.7804 35.2769 20.001 35.2501C22.0827 35.2752 24.1574 35.0157 26.168 34.4805L26.5693 34.3702L26.5762 34.3682C28.7637 33.6802 30.2517 31.6517 30.251 29.3585V22.3751L29.8936 22.546ZM6.91797 21.0255L6.77539 20.9571L3.35645 19.3292H3.35742C2.50599 18.8712 1.78211 18.2123 1.24707 17.4122L1.0293 17.0616C-0.53804 14.3205 0.335227 10.8511 2.96387 9.16608L3.22363 9.00885L3.22656 9.0069C3.26241 8.98567 3.30228 8.96328 3.3457 8.94147L3.34668 8.94244L15.7754 3.01178L15.7842 3.00787L15.792 3.00299C18.4461 1.47844 21.7171 1.50668 24.3447 3.07623L24.3545 3.08209L24.3652 3.08698L36.6553 8.94244V8.94147C38.2544 9.74217 39.6704 11.3959 39.748 13.1602L39.751 13.3311V33.3331C39.7509 34.1154 39.1164 34.7501 38.334 34.7501C37.5518 34.7499 36.918 34.1153 36.918 33.3331V19.1895L36.5596 19.3604L33.2266 20.9542L33.084 21.0225V29.3585C33.0819 32.7899 30.919 35.8336 27.709 36.9776L27.4004 37.0811C25.1472 37.7302 22.8161 38.0675 20.4727 38.084L20.0039 38.0831H19.998C17.4988 38.1084 15.0095 37.7682 12.6084 37.0743C9.22608 36.0215 6.91998 32.892 6.91797 29.3497V21.0255ZM36.918 14.1299C36.9045 13.0065 36.2898 11.9762 35.3076 11.4307L35.3008 11.4278L35.293 11.4239L23.0156 5.57526C21.3263 4.53855 19.2311 4.44862 17.4688 5.31647L17.1377 5.4942L4.64648 11.461L4.6377 11.4649L4.62988 11.4698C4.19451 11.7189 3.82773 12.0702 3.56055 12.4922L3.45215 12.6768C2.64742 14.1691 3.20499 16.0312 4.69727 16.836L4.81543 16.6163L4.69727 16.837L4.70898 16.8419L17.0068 22.6924C18.8042 23.7921 21.0595 23.8191 22.8828 22.7608L35.4424 16.7667L35.4551 16.7608L35.4668 16.753C36.3705 16.1888 36.9197 15.1983 36.918 14.1329V14.1299Z" fill="#00283B" stroke="white" stroke-width="0.5"></path></g><defs><clipPath id="clip0_12604_6158"><rect width="40" height="40" fill="white"></rect></clipPath></defs></svg> 