<svg width="20" height="21" viewBox="0 0 20 21" fill="none" xmlns="http://www.w3.org/2000/svg">
<g clip-path="url(#clip0_11063_4831)">
<path d="M18.2422 6.53308H1.75781C0.786602 6.53308 0 7.32457 0 8.29089V18.8378C0 19.8098 0.792383 20.5956 1.75781 20.5956H18.2422C19.2053 20.5956 20 19.8132 20 18.8378V8.29089C20 7.32628 19.2165 6.53308 18.2422 6.53308ZM17.996 7.70496C17.6369 8.06218 11.4564 14.2102 11.243 14.4224C10.9109 14.7544 10.4695 14.9373 10 14.9373C9.53047 14.9373 9.08906 14.7544 8.75594 14.4213C8.61242 14.2785 2.50012 8.19847 2.00398 7.70496H17.996ZM1.17188 18.5993V8.53015L6.23586 13.5675L1.17188 18.5993ZM2.00473 19.4237L7.06672 14.3939L7.9284 15.251C8.48176 15.8044 9.21746 16.1091 10 16.1091C10.7825 16.1091 11.5182 15.8044 12.0705 15.2521L12.9333 14.3939L17.9953 19.4237H2.00473ZM18.8281 18.5993L13.7641 13.5675L18.8281 8.53015V18.5993Z" fill="white"/>
</g>
<defs>
<clipPath id="clip0_11063_4831">
<rect width="20" height="20" fill="white" transform="translate(0 0.230957)"/>
</clipPath>
</defs>
</svg>
