<svg width="18" height="26" viewBox="0 0 18 26" fill="none" xmlns="http://www.w3.org/2000/svg">
<path d="M1.5 11.6719C1.10938 12.0625 0.953125 12.5312 0.953125 13C0.953125 13.5469 1.10938 14.0156 1.5 14.3281L12.125 24.9531C12.4375 25.3438 12.9062 25.5 13.4531 25.5C13.9219 25.5 14.3906 25.3438 14.7812 24.9531L16.5 23.1562C16.8125 22.8438 17.0469 22.375 17.0469 21.8281C17.0469 21.3594 16.8125 20.8906 16.5 20.5L9 13L16.5 5.42188C16.8125 5.10938 17.0469 4.71875 17.0469 4.17188C17.0469 3.70312 16.8125 3.23438 16.5 2.84375L14.7812 1.04688C14.3906 0.734375 13.9219 0.5 13.4531 0.5C12.9062 0.5 12.4375 0.734375 12.125 1.04688L1.5 11.6719Z" fill="#D9E1E5"/>
</svg>
