<svg width="18" height="26" viewBox="0 0 18 26" fill="none" xmlns="http://www.w3.org/2000/svg">
<path d="M16.5 14.3281C16.8125 14.0156 17.0469 13.5469 17.0469 13C17.0469 12.5312 16.8125 12.0625 16.5 11.6719L5.875 1.04688C5.48438 0.734375 5.01562 0.5 4.54688 0.5C4 0.5 3.53125 0.734375 3.21875 1.04688L1.5 2.84375C1.10938 3.23438 0.953125 3.70312 0.953125 4.17188C0.953125 4.71875 1.10938 5.1875 1.5 5.5L9 13L1.5 20.5C1.10938 20.8906 0.953125 21.3594 0.953125 21.8281C0.953125 22.375 1.10938 22.8438 1.5 23.1562L3.21875 24.9531C3.53125 25.3438 4 25.5 4.54688 25.5C5.01562 25.5 5.48438 25.3438 5.875 24.9531L16.5 14.3281Z" fill="#D9E1E5"/>
</svg>
