<?xml version="1.0" encoding="UTF-8"?> <svg xmlns="http://www.w3.org/2000/svg" width="40" height="40" viewBox="0 0 40 40" fill="none"><path d="M15.001 0.25H25.001C25.9683 0.25 26.8765 0.700217 27.4658 1.46387L27.5791 1.62012C28.1079 2.39892 28.245 3.36588 27.959 4.24023L27.8955 4.41406C27.1584 6.26664 25.6974 7.80397 24.2578 8.95996L23.9141 9.23633L24.3281 9.38965C28.144 10.806 31.5854 13.9569 34.0752 17.7686C36.5648 21.5801 38.085 26.0246 38.085 30C38.085 35.3768 33.7117 39.7498 28.335 39.75H11.668C6.29104 39.75 1.91797 35.3769 1.91797 30C1.91797 26.0246 3.43812 21.5801 5.92773 17.7686C8.41755 13.9568 11.8588 10.806 15.6748 9.38965L16.0879 9.23633L15.7441 8.95996C14.3048 7.80418 12.8436 6.26567 12.1064 4.41504H12.1074C11.766 3.55364 11.8461 2.58089 12.3223 1.77832L12.4229 1.62012C13.0048 0.761855 13.9693 0.250108 15.001 0.25ZM20.001 11.417C16.3199 11.4171 12.5065 13.879 9.62695 17.3984C6.74267 20.9237 4.75098 25.561 4.75098 30C4.75098 33.8147 7.85323 36.917 11.668 36.917H28.333C32.1476 36.917 35.251 33.8148 35.251 30C35.251 25.561 33.2602 20.9237 30.376 17.3984C27.4964 13.8789 23.6822 11.417 20.001 11.417ZM19.998 13.583C20.7799 13.583 21.415 14.2181 21.415 15V16.917H22.1113C23.6946 16.917 25.1801 17.7168 26.0576 19.0234L26.2246 19.292C26.5912 19.927 26.4114 20.7275 25.8291 21.1484L25.708 21.2266L25.707 21.2275C25.0741 21.5948 24.2727 21.4152 23.8516 20.832L23.7725 20.71C23.4294 20.1178 22.7938 19.752 22.1113 19.752H18.3311C17.2749 19.7521 16.4152 20.6118 16.415 21.668C16.415 22.3732 16.8894 22.9779 17.5605 23.1523L17.6973 23.1816L22.7666 24.0264C24.8809 24.378 26.416 26.1904 26.416 28.335C26.416 30.9536 24.2846 33.085 21.666 33.085H21.416V35.002C21.4159 35.7833 20.782 36.4168 20 36.417C19.2181 36.417 18.583 35.7819 18.583 35V33.083H17.8867C16.3015 33.083 14.8166 32.2843 13.9395 30.9775L13.7725 30.71C13.406 30.0751 13.5861 29.2745 14.168 28.8535L14.29 28.7744C14.9213 28.4071 15.7241 28.5867 16.1455 29.1699L16.2246 29.292C16.566 29.8827 17.2042 30.25 17.8867 30.25H21.666C22.7224 30.25 23.583 29.3894 23.583 28.333C23.5829 27.628 23.1084 27.0231 22.4375 26.8486L22.3008 26.8203L17.2305 25.9746C15.1164 25.6229 13.5812 23.8113 13.5811 21.667C13.5811 19.0485 15.7126 16.9171 18.3311 16.917H18.5811V15C18.5811 14.2181 19.2161 13.583 19.998 13.583ZM25.0283 3.02539L14.998 3.08301L14.6328 3.08594L14.7676 3.4248C15.2091 4.54171 16.1083 5.55817 17.0732 6.39453C17.9208 7.12913 18.8345 7.73856 19.5723 8.16992L19.877 8.34375L19.998 8.41113L20.1201 8.34277C20.9019 7.90581 21.9599 7.2245 22.9336 6.37598C23.9041 5.53021 24.8104 4.50155 25.2617 3.36719L25.3994 3.02246L25.0283 3.02539Z" fill="#00283B" stroke="white" stroke-width="0.5"></path></svg> 