<?xml version="1.0" encoding="UTF-8"?> <svg xmlns="http://www.w3.org/2000/svg" width="32" height="32" viewBox="0 0 32 32" fill="none"><path d="M11.999 0.25H19.999C20.757 0.250101 21.4687 0.602708 21.9307 1.20117L22.0195 1.32422C22.4341 1.93469 22.5414 2.69227 22.3174 3.37695L22.2676 3.5127C21.6825 4.98318 20.5216 6.20661 19.373 7.12891L19.0293 7.40527L19.4424 7.55859C22.4825 8.68689 25.228 11.1989 27.2158 14.2422C29.2034 17.2851 30.415 20.8314 30.415 24C30.415 28.2739 26.939 31.75 22.665 31.75H9.33203C5.0581 31.75 1.58203 28.2739 1.58203 24C1.58203 20.8314 2.79364 17.2851 4.78125 14.2422C6.76904 11.199 9.51469 8.68696 12.5547 7.55859L12.9678 7.40527L12.625 7.12891C11.5481 6.26421 10.4596 5.13393 9.8457 3.78516L9.72949 3.5127C9.46243 2.83834 9.5254 2.07699 9.89844 1.44824L9.97754 1.32422C10.4339 0.651212 11.1903 0.25 11.999 0.25ZM15.999 9.08301C13.0328 9.08301 9.96849 11.0654 7.66016 13.8867C5.34712 16.7138 3.74902 20.4348 3.74902 24C3.74902 27.0794 6.25263 29.583 9.33203 29.583H22.6641C25.7434 29.583 28.249 27.0795 28.249 24C28.249 20.4348 26.6499 16.7138 24.3369 13.8867C22.0287 11.0656 18.9651 9.08315 15.999 9.08301ZM15.9961 10.917C16.594 10.917 17.0791 11.4021 17.0791 12V13.583H17.6865C19.0198 13.583 20.2658 14.3028 20.9346 15.459V15.458C21.2149 15.9435 21.0769 16.556 20.6318 16.8779L20.5391 16.9385H20.5381C20.054 17.2194 19.4411 17.0821 19.1191 16.6357L19.0596 16.543H19.0586C18.7752 16.0538 18.2504 15.751 17.6865 15.751H14.6631C13.7903 15.751 13.0791 16.4622 13.0791 17.335C13.0792 17.9608 13.5289 18.4908 14.1465 18.5938V18.5947L18.2031 19.2705C19.8704 19.5478 21.081 20.9768 21.0811 22.668C21.0811 24.7351 19.3982 26.4178 17.3311 26.418H17.0811V28.001C17.0811 28.5986 16.5953 29.083 15.9971 29.083C15.3993 29.0828 14.9141 28.5978 14.9141 28V26.417H14.3066C13.0556 26.417 11.884 25.786 11.1914 24.7549L11.0596 24.543C10.7792 24.0575 10.9162 23.445 11.3613 23.123L11.4551 23.0625C11.9376 22.7817 12.5518 22.919 12.874 23.3652L12.9346 23.458C13.2166 23.9461 13.7428 24.25 14.3066 24.25H17.3311C18.2035 24.2498 18.9139 23.5395 18.9141 22.667C18.9141 22.0799 18.5187 21.5758 17.96 21.4307L17.8467 21.4062L13.79 20.7305C12.1229 20.4531 10.9131 19.0241 10.9131 17.333C10.9133 15.2659 12.5959 13.583 14.6631 13.583H14.9131V12C14.9131 11.4021 15.3982 10.917 15.9961 10.917ZM20.0195 2.37012L11.9961 2.41699L11.6309 2.41895L11.7646 2.75879C12.1221 3.66308 12.8487 4.4821 13.623 5.15332C14.4011 5.82767 15.2487 6.37066 15.875 6.71875L15.9961 6.78613L16.1182 6.71777C16.7458 6.36697 17.5957 5.8203 18.3779 5.13867C19.1568 4.45993 19.8886 3.63089 20.2539 2.71289L20.3906 2.36816L20.0195 2.37012Z" fill="white" stroke="#00283B" stroke-width="0.5"></path></svg> 