<?xml version="1.0" encoding="UTF-8"?> <svg xmlns="http://www.w3.org/2000/svg" width="32" height="32" viewBox="0 0 32 32" fill="none"><path d="M14.667 1.58313H17.333C18.2654 1.58313 19.1627 1.92998 19.8506 2.55286L19.9854 2.68176C20.6884 3.38499 21.083 4.33872 21.083 5.33313V6.91614H25.333C27.0342 6.91818 28.6652 7.5951 29.8682 8.79797C31.0711 10.0009 31.7479 11.632 31.75 13.3331V24.0001C31.7479 25.5947 31.1531 27.1274 30.0879 28.3038L29.8682 28.5343C28.6652 29.7373 27.0343 30.4141 25.333 30.4161H6.66699L6.34863 30.4083C4.86904 30.3332 3.46043 29.7485 2.3623 28.754L2.13184 28.5343C1.00413 27.4065 0.33822 25.9028 0.257812 24.3175L0.25 23.9991V13.3331L0.257812 13.0157C0.332794 11.5359 0.917482 10.1267 1.91211 9.02844L2.13184 8.79797C3.25954 7.67035 4.76342 7.00542 6.34863 6.92493L6.66699 6.91614H10.917V5.33313C10.917 4.40082 11.264 3.5044 11.8867 2.81653L12.0146 2.68176C12.7179 1.9785 13.6724 1.58313 14.667 1.58313ZM6.66699 9.08313C5.61031 9.08313 4.59406 9.47686 3.81445 10.1827L3.66113 10.3282C2.86431 11.1252 2.41699 12.2061 2.41699 13.3331V24.0001C2.41707 25.0569 2.8105 26.0731 3.5166 26.8527L3.66113 27.005C4.45816 27.802 5.53982 28.2501 6.66699 28.2501H25.333C26.4602 28.2501 27.5418 27.802 28.3389 27.005C29.1357 26.2081 29.5829 25.1271 29.583 24.0001V13.3331C29.583 12.2763 29.1895 11.2602 28.4834 10.4806L28.3389 10.3282C27.5418 9.53122 26.4602 9.08313 25.333 9.08313H6.66699ZM16 13.5831C16.2513 13.5831 16.4938 13.6704 16.6865 13.8282L16.7656 13.9005C16.9687 14.1036 17.0829 14.3789 17.083 14.6661V17.5831H20C20.2872 17.5831 20.5625 17.6974 20.7656 17.9005C20.9687 18.1036 21.0829 18.3789 21.083 18.6661C21.083 18.9535 20.9688 19.2296 20.7656 19.4327C20.5625 19.6357 20.2872 19.7501 20 19.7501H17.083V22.6661C17.083 22.9175 16.9958 23.1599 16.8379 23.3527L16.7656 23.4327C16.5625 23.6357 16.2872 23.7501 16 23.7501C15.7128 23.7501 15.4375 23.6357 15.2344 23.4327C15.0312 23.2296 14.917 22.9535 14.917 22.6661V19.7501H12C11.7485 19.7501 11.5063 19.6621 11.3135 19.504L11.2344 19.4327C11.0312 19.2296 10.917 18.9535 10.917 18.6661C10.9171 18.4148 11.0041 18.1723 11.1621 17.9796L11.2344 17.9005C11.4375 17.6974 11.7128 17.5831 12 17.5831H14.917V14.6661C14.9171 14.3789 15.0313 14.1036 15.2344 13.9005C15.4375 13.6974 15.7128 13.5831 16 13.5831ZM14.667 3.75012C14.2995 3.75012 13.9449 3.87759 13.6631 4.10852L13.5469 4.21399C13.2501 4.51089 13.083 4.91336 13.083 5.33313V6.91614H18.917V5.33313C18.917 4.96547 18.7887 4.61105 18.5576 4.32922L18.4531 4.21399C18.1562 3.91706 17.7529 3.75012 17.333 3.75012H14.667Z" fill="white" stroke="#00283B" stroke-width="0.5"></path></svg> 