<?xml version="1.0" encoding="UTF-8"?> <svg xmlns="http://www.w3.org/2000/svg" width="40" height="40" viewBox="0 0 40 40" fill="none"><path d="M18.333 1.91638H21.667C22.9267 1.91647 24.1347 2.41726 25.0254 3.30798C25.9161 4.19877 26.417 5.40668 26.417 6.66638V8.58337H31.666L32.0674 8.59314C34.0644 8.69453 35.9593 9.53286 37.3799 10.9535C38.8951 12.4688 39.7474 14.5234 39.75 16.6664V29.9994L39.7393 30.3998C39.638 32.3969 38.8005 34.2915 37.3799 35.7123C35.8645 37.2277 33.8091 38.0808 31.666 38.0834H8.33398C6.19086 38.0808 4.13554 37.2277 2.62012 35.7123C1.1049 34.1969 0.252567 32.1424 0.25 29.9994V16.6664L0.260742 16.266C0.362065 14.2689 1.19952 12.3742 2.62012 10.9535C4.04075 9.53286 5.93557 8.69453 7.93262 8.59314L8.33398 8.58337H13.583V6.66638C13.583 5.40668 14.0839 4.19877 14.9746 3.30798C15.8653 2.41726 17.0733 1.91647 18.333 1.91638ZM8.33301 11.4164C6.94074 11.4165 5.60558 11.97 4.62109 12.9545C3.63663 13.939 3.08301 15.2741 3.08301 16.6664V29.9994C3.08301 31.3918 3.63653 32.7277 4.62109 33.7123C5.54417 34.6353 6.77562 35.1792 8.07324 35.2435L8.33301 35.2494H31.667C33.0592 35.2493 34.3944 34.6967 35.3789 33.7123C36.3635 32.7277 36.917 31.3918 36.917 29.9994V16.6664L36.9102 16.4056C36.8457 15.1083 36.3017 13.8774 35.3789 12.9545C34.3944 11.97 33.0593 11.4165 31.667 11.4164H8.33301ZM20 16.9164C20.3757 16.9164 20.7363 17.0657 21.002 17.3314C21.2675 17.5971 21.417 17.9577 21.417 18.3334V21.9164H25C25.3757 21.9164 25.7363 22.0657 26.002 22.3314C26.2675 22.5971 26.417 22.9577 26.417 23.3334C26.4169 23.7088 26.2673 24.0688 26.002 24.3344C25.7363 24.6 25.3757 24.7494 25 24.7494H21.417V28.3334C21.4169 28.7088 21.2673 29.0688 21.002 29.3344C20.7363 29.6 20.3757 29.7494 20 29.7494C19.6243 29.7494 19.2637 29.6 18.998 29.3344C18.7327 29.0688 18.5831 28.7088 18.583 28.3334V24.7494H15C14.6243 24.7494 14.2637 24.6 13.998 24.3344C13.7327 24.0688 13.5831 23.7088 13.583 23.3334C13.583 22.9577 13.7325 22.5971 13.998 22.3314C14.2637 22.0657 14.6243 21.9164 15 21.9164H18.583V18.3334C18.583 17.9577 18.7325 17.5971 18.998 17.3314C19.2637 17.0657 19.6243 16.9164 20 16.9164ZM18.333 4.74939C17.8249 4.74948 17.3379 4.95175 16.9785 5.31091C16.6191 5.67036 16.417 6.15805 16.417 6.66638V8.58337H23.583V6.66638C23.583 6.15805 23.3809 5.67036 23.0215 5.31091C22.6621 4.95175 22.1751 4.74948 21.667 4.74939H18.333Z" fill="#00283B" stroke="white" stroke-width="0.5"></path></svg> 