<svg width="114" height="76" viewBox="0 0 114 76" fill="none" xmlns="http://www.w3.org/2000/svg">
<path d="M82.8756 69.8017C86.2355 73.2987 87.5502 73.4444 91.0561 73.4444C95.4386 73.4444 106.395 73.4444 112.092 73.4444C116.182 73.4444 112.384 71.113 108.294 68.4903C98.9446 62.3704 82.1452 47.6537 74.1107 36.2883C72.942 34.5398 71.3351 31.4799 72.2116 29.5856C73.3803 27.2543 64.9075 31.7713 63.1546 34.1027C60.9633 37.1626 61.8398 38.7654 63.3006 41.3882C69.7282 53.3364 72.0655 58.582 82.8756 69.8017Z" fill="url(#paint0_linear_9305_29394)"/>
<path opacity="0.1" d="M75.1378 63.3908C69.5867 52.6082 70.7554 41.8257 75.2839 35.4145C79.3742 29.7318 69.7328 30.606 69.7328 30.606C69.7328 30.606 62.1366 34.6859 64.6199 43.1371C66.8112 50.1312 70.6093 57.271 75.1378 63.3908Z" fill="#231F20"/>
<path opacity="0.15" d="M74.2555 60.0393C71.1878 54.7937 65.9289 42.5541 72.9408 33.9572C77.3233 28.5659 68.2662 32.0629 68.2662 32.0629C68.2662 32.0629 61.5464 36.1428 65.1985 44.0112C68.8505 52.0252 70.0192 53.7738 74.2555 60.0393Z" fill="#231F20"/>
<path d="M81.5613 3.7953C85.0673 0.298256 86.2359 0.00683594 89.7419 0.00683594C94.1244 0.00683594 102.743 0.00683594 108.44 0.00683594C112.531 0.00683594 108.733 2.77533 104.642 5.54382C90.0341 16.035 79.078 24.4861 65.9306 39.4943C64.6159 41.0971 64.6159 42.5542 65.2002 44.5941C66.0767 47.7998 72.5043 57.2709 74.8416 61.788C67.8297 52.6082 62.1325 43.7199 59.503 39.0572C57.6039 35.7058 57.75 34.6859 59.3569 31.7717C65.3463 20.8434 73.5268 11.3722 81.5613 3.7953Z" fill="url(#paint1_radial_9305_29394)"/>
<path opacity="0.56" d="M81.5613 3.7953C85.0673 0.298256 86.2359 0.00683594 89.7419 0.00683594C94.1244 0.00683594 102.743 0.00683594 108.44 0.00683594C112.531 0.00683594 108.733 2.77533 104.642 5.54382C90.0341 16.035 79.078 24.4861 65.9306 39.4943C64.6159 41.0971 64.6159 42.5542 65.2002 44.5941C66.0767 47.7998 72.5043 57.2709 74.8416 61.788C67.8297 52.6082 62.1325 43.7199 59.503 39.0572C57.6039 35.7058 57.75 34.6859 59.3569 31.7717C65.3463 20.8434 73.5268 11.3722 81.5613 3.7953Z" fill="url(#paint2_linear_9305_29394)"/>
<path opacity="0.2" d="M107.564 3.64893C100.26 8.74878 81.123 19.5313 65.4923 38.7651C64.1776 40.3679 63.0089 41.825 67.2453 49.2562C67.6835 49.839 70.1669 54.2103 66.2227 44.7392C65.2001 42.2621 66.0766 40.0765 67.3913 38.4736C80.5387 22.4455 92.2252 15.0143 107.564 3.64893Z" fill="url(#paint3_linear_9305_29394)"/>
<path opacity="0.3" d="M81.5599 3.7953C85.0658 0.298256 86.2345 0.00683594 89.7405 0.00683594C94.1229 0.00683594 102.742 0.00683594 108.439 0.00683594C84.0433 7.87518 67.9743 20.9891 59.3555 31.6259C65.3448 20.8434 73.5254 11.3722 81.5599 3.7953Z" fill="url(#paint4_linear_9305_29394)"/>
<path d="M106.833 5.83521C108.44 4.66953 110.193 3.21242 110.339 2.48387V0.735352V1.02677C110.047 2.04674 107.564 3.94098 104.934 5.6895C88.573 17.3463 78.7856 24.3404 65.9304 39.64C64.6156 41.2428 64.9078 43.137 65.4921 45.1769C65.6382 45.9055 69.1442 55.9595 81.8533 69.6563C85.2132 73.299 87.1122 73.4447 90.6182 73.4447C91.0564 73.4447 91.2025 73.4447 91.7868 73.4447C88.1348 73.4447 86.3818 72.8619 83.168 69.3648C76.8865 62.5165 71.7736 56.2509 67.8294 46.7798C66.8069 44.3027 67.099 42.6999 68.9981 40.2228C77.4708 29.0031 91.0564 17.492 106.833 5.83521Z" fill="url(#paint5_linear_9305_29394)"/>
<path d="M113.846 72.8618C113.261 73.4446 112.093 73.2989 111.508 73.2989C110.486 73.2989 94.4169 73.2989 90.0345 73.2989C86.5285 73.2989 83.8991 70.9675 82 70.0933C87.1129 75.9217 87.5511 75.6303 91.9336 75.6303C96.316 75.6303 106.834 75.6303 112.531 75.6303C114.284 75.6303 113.846 74.6103 113.846 72.8618Z" fill="url(#paint6_linear_9305_29394)"/>
<path opacity="0.3" d="M65.7835 45.6135C65.1992 43.7192 64.907 41.6793 66.0757 40.2222C77.3239 26.8169 87.1114 18.3657 104.787 5.39746L104.641 5.54317C88.2801 17.2 78.4926 24.1941 65.6374 39.4936C64.3227 41.0965 64.6148 42.9907 65.1992 45.0306C65.3452 45.6135 68.1208 53.4818 77.3239 64.7015C68.8512 54.2104 66.0757 46.1963 65.7835 45.6135Z" fill="url(#paint7_linear_9305_29394)"/>
<path opacity="0.47" d="M82.7293 69.2195C77.1782 63.2454 72.5035 57.417 68.1211 48.9658C70.0202 53.1914 73.8183 59.7484 83.4597 70.5309C86.0891 73.4451 87.8421 73.2994 89.5951 73.2994C86.6735 73.1537 85.2127 71.8423 82.7293 69.2195Z" fill="url(#paint8_linear_9305_29394)"/>
<path d="M2.38406 2.77532C2.96838 2.19248 4.13704 2.33819 4.72136 2.33819C5.74394 2.33819 19.9139 2.33819 24.2963 2.33819C27.8023 2.33819 30.87 4.37814 32.3308 5.68953C27.6562 -0.4303 25.9032 0.00683015 22.3972 0.00683015C18.0148 0.00683015 9.39598 0.00683015 3.69879 0.00683015C2.09189 0.00683015 2.38406 0.881091 2.38406 2.77532Z" fill="url(#paint9_linear_9305_29394)"/>
<path d="M31.454 5.83562C28.2402 2.19287 26.7794 2.19287 23.2734 2.19287C18.891 2.19287 9.8339 2.19287 4.13671 2.19287C0.0464289 2.19287 4.2828 4.66994 8.227 7.72986C19.6214 16.4725 31.8922 28.7121 38.9041 39.349C40.0728 41.0975 41.6797 44.1574 40.8032 46.0516C39.7806 48.383 48.1073 43.866 49.8603 41.5346C52.0515 38.4747 51.175 36.7262 49.7142 34.2491C43.2866 22.3009 37.8816 13.2668 31.454 5.83562Z" fill="url(#paint10_linear_9305_29394)"/>
<path opacity="0.05" d="M37.8818 12.2466C43.4329 23.0291 42.2642 33.8117 37.7357 40.2229C33.6454 45.9056 43.2868 45.0314 43.2868 45.0314C43.2868 45.0314 50.883 40.9515 48.3996 32.5003C46.2084 25.5062 42.4103 18.2207 37.8818 12.2466Z" fill="#231F20"/>
<path opacity="0.1" d="M38.7578 15.5981C41.8255 20.8437 47.0845 33.0834 40.0725 41.6803C35.6901 47.0715 44.7472 43.5745 44.7472 43.5745C44.7472 43.5745 51.4669 39.4946 47.8149 31.6263C44.1628 23.6122 42.9942 21.8637 38.7578 15.5981Z" fill="#231F20"/>
<path d="M31.4542 71.842C27.9483 75.1934 26.6336 75.6305 23.1276 75.6305C18.7451 75.6305 7.49686 75.6305 1.79968 75.6305C-2.29061 75.6305 1.50752 72.862 5.5978 70.0935C20.352 59.6024 33.7916 51.1512 46.9389 36.1431C48.2536 34.5402 48.2536 33.0831 47.6693 31.0432C46.9389 27.9833 40.5113 18.3664 38.174 13.9951C45.1859 23.1749 50.8831 32.0632 53.5126 36.7259C55.4116 40.0772 55.2656 41.0972 53.6587 44.0114C47.6693 54.6482 39.4887 64.2651 31.4542 71.842Z" fill="url(#paint11_radial_9305_29394)"/>
<path opacity="0.9" d="M31.4542 71.842C27.9483 75.1934 26.6336 75.6305 23.1276 75.6305C18.7451 75.6305 7.49686 75.6305 1.79968 75.6305C-2.29061 75.6305 1.50752 72.862 5.5978 70.0935C20.352 59.6024 33.7916 51.1512 46.9389 36.1431C48.2536 34.5402 48.2536 33.0831 47.6693 31.0432C46.9389 27.9833 40.5113 18.3664 38.174 13.9951C45.1859 23.1749 50.8831 32.0632 53.5126 36.7259C55.4116 40.0772 55.2656 41.0972 53.6587 44.0114C47.6693 54.6482 39.4887 64.2651 31.4542 71.842Z" fill="url(#paint12_linear_9305_29394)"/>
<path opacity="0.2" d="M2.96875 71.9874C10.2728 66.8876 32.4772 55.6679 47.9619 36.8713C49.2766 35.2685 50.1531 33.5199 45.3324 25.6516C44.8942 25.0688 43.1412 21.5717 47.0854 30.8972C48.108 33.3742 47.2315 35.5599 45.9167 37.1627C32.4772 53.1908 18.1612 60.622 2.96875 71.9874Z" fill="url(#paint13_linear_9305_29394)"/>
<path opacity="0.3" d="M31.4554 71.8419C27.9494 75.1932 26.6347 75.6303 23.1287 75.6303C18.7463 75.6303 7.49797 75.6303 1.80078 75.6303C26.1964 67.762 44.8949 54.6481 53.5137 44.0112C47.6704 54.6481 39.4898 64.2649 31.4554 71.8419Z" fill="url(#paint14_linear_9305_29394)"/>
<path d="M3.69932 69.8024C2.09242 70.9681 0.339441 72.4252 0.193359 73.1537V74.9022V74.6108C0.485523 73.5908 2.96891 71.6966 5.59838 69.9481C21.9595 58.2913 34.3765 51.2972 47.2316 35.9976C48.5464 34.3948 48.8385 32.792 47.6699 30.4606C45.6247 26.235 41.8266 18.5124 32.3313 5.98133C29.7019 2.48429 26.7802 2.19287 23.2743 2.19287C22.6899 2.19287 23.2743 2.19287 22.5439 2.19287C26.1959 2.19287 28.3871 2.92142 31.4548 6.70989C37.0059 13.5583 41.3884 20.4066 45.3326 28.8578C46.5012 31.3349 46.2091 33.2291 44.1639 35.5605C34.2304 48.6744 19.4761 58.5827 3.69932 69.8024Z" fill="url(#paint15_linear_9305_29394)"/>
<path opacity="0.25" d="M47.3766 35.9967C48.6913 34.3939 48.9835 32.7911 47.8148 30.4597C46.0619 26.817 42.9941 20.5514 36.1283 10.9346C44.3089 23.4656 47.0844 29.7312 47.2305 30.314C47.8148 32.0625 48.2531 33.6654 46.7923 35.2682C35.8361 48.2364 20.9358 58.7275 5.45117 70.0929L5.59725 69.9472C22.2506 58.4361 34.5214 51.2963 47.3766 35.9967Z" fill="url(#paint16_linear_9305_29394)"/>
<defs>
<linearGradient id="paint0_linear_9305_29394" x1="75.1819" y1="24.4702" x2="99.3166" y2="73.0919" gradientUnits="userSpaceOnUse">
<stop offset="0.0121212" stop-color="#ECCA25"/>
<stop offset="1" stop-color="#CF9F03"/>
</linearGradient>
<radialGradient id="paint1_radial_9305_29394" cx="0" cy="0" r="1" gradientUnits="userSpaceOnUse" gradientTransform="translate(79.8105 30.8355) scale(34.0899 34.0032)">
<stop offset="0.2696" stop-color="#50AADC"/>
<stop offset="1" stop-color="#0078AA"/>
</radialGradient>
<linearGradient id="paint2_linear_9305_29394" x1="65.4573" y1="47.2968" x2="94.7192" y2="11.7559" gradientUnits="userSpaceOnUse">
<stop stop-color="#2A528C"/>
<stop offset="0.0517209" stop-color="#32528D"/>
<stop offset="0.0967866" stop-color="white"/>
<stop offset="0.1303" stop-color="#D0E8F6"/>
<stop offset="0.1836" stop-color="#8CC7E8"/>
<stop offset="0.2222" stop-color="#60B2DF"/>
<stop offset="0.2418" stop-color="#50AADC"/>
<stop offset="0.4225" stop-color="#0078AA"/>
<stop offset="0.463" stop-color="#0078AA"/>
<stop offset="0.9939" stop-color="#00508C"/>
</linearGradient>
<linearGradient id="paint3_linear_9305_29394" x1="70.7648" y1="40.1334" x2="104.329" y2="10.8039" gradientUnits="userSpaceOnUse">
<stop stop-color="white"/>
<stop offset="1" stop-color="#50AADC"/>
</linearGradient>
<linearGradient id="paint4_linear_9305_29394" x1="65.5273" y1="27.7879" x2="101.982" y2="-4.47217" gradientUnits="userSpaceOnUse">
<stop stop-color="white"/>
<stop offset="1" stop-color="#50AADC"/>
</linearGradient>
<linearGradient id="paint5_linear_9305_29394" x1="86.7112" y1="15.791" x2="94.0157" y2="71.9363" gradientUnits="userSpaceOnUse">
<stop offset="0.0121212" stop-color="#00508C"/>
<stop offset="0.3441" stop-color="#0078AA"/>
<stop offset="1" stop-color="#5AC8FF"/>
</linearGradient>
<linearGradient id="paint6_linear_9305_29394" x1="87.7109" y1="72.86" x2="115.591" y2="72.86" gradientUnits="userSpaceOnUse">
<stop offset="0.0119995" stop-color="#5AC8FF"/>
<stop offset="0.0214099" stop-color="#52C1F7"/>
<stop offset="0.0362847" stop-color="#3BACE2"/>
<stop offset="0.0546581" stop-color="#168CBF"/>
<stop offset="0.0642401" stop-color="#0078AA"/>
<stop offset="0.8182" stop-color="#50AADC"/>
<stop offset="0.9939" stop-color="#5AC8FF"/>
</linearGradient>
<linearGradient id="paint7_linear_9305_29394" x1="90.5657" y1="9.30031" x2="73.4635" y2="51.3182" gradientUnits="userSpaceOnUse">
<stop stop-color="#00508C"/>
<stop offset="1" stop-color="white"/>
</linearGradient>
<linearGradient id="paint8_linear_9305_29394" x1="84.4618" y1="70.0714" x2="70.2184" y2="48.7261" gradientUnits="userSpaceOnUse">
<stop stop-color="white"/>
<stop offset="1" stop-color="#50AADC"/>
</linearGradient>
<linearGradient id="paint9_linear_9305_29394" x1="27.9022" y1="2.84337" x2="1.72552" y2="2.84337" gradientUnits="userSpaceOnUse">
<stop stop-color="#0078AA"/>
<stop offset="0.0541827" stop-color="#5AC8FF"/>
<stop offset="0.0608032" stop-color="#62CBFF"/>
<stop offset="0.0712658" stop-color="#79D2FF"/>
<stop offset="0.0841924" stop-color="#9EDFFF"/>
<stop offset="0.0896957" stop-color="#B0E5FF"/>
<stop offset="0.9939" stop-color="#5AC8FF"/>
</linearGradient>
<linearGradient id="paint10_linear_9305_29394" x1="14.971" y1="-2.273" x2="40.047" y2="45.0377" gradientUnits="userSpaceOnUse">
<stop offset="0.0121212" stop-color="#ECCA25"/>
<stop offset="1" stop-color="#CF9F03"/>
</linearGradient>
<radialGradient id="paint11_radial_9305_29394" cx="0" cy="0" r="1" gradientUnits="userSpaceOnUse" gradientTransform="translate(39.4061 65.0891) rotate(180) scale(34.6757 34.5875)">
<stop offset="0.2696" stop-color="#50AADC"/>
<stop offset="1" stop-color="#0078AA"/>
</radialGradient>
<linearGradient id="paint12_linear_9305_29394" x1="47.4848" y1="28.4196" x2="17.5447" y2="64.7845" gradientUnits="userSpaceOnUse">
<stop offset="0.0493839" stop-color="#5AC8FF"/>
<stop offset="0.086978" stop-color="white"/>
<stop offset="0.0917614" stop-color="#E0EFF5"/>
<stop offset="0.1072" stop-color="#81BDD5"/>
<stop offset="0.1198" stop-color="#3C98BE"/>
<stop offset="0.1288" stop-color="#1181B0"/>
<stop offset="0.1333" stop-color="#0078AA"/>
<stop offset="0.435" stop-color="#0078AA"/>
<stop offset="1" stop-color="#1A5C8D"/>
</linearGradient>
<linearGradient id="paint13_linear_9305_29394" x1="41.7943" y1="35.3875" x2="7.16879" y2="65.6441" gradientUnits="userSpaceOnUse">
<stop stop-color="#0078AA"/>
<stop offset="1" stop-color="#00508C"/>
</linearGradient>
<linearGradient id="paint14_linear_9305_29394" x1="60.3283" y1="57.7105" x2="6.25887" y2="62.9883" gradientUnits="userSpaceOnUse">
<stop stop-color="#00508C"/>
<stop offset="1" stop-color="#5AC8FF"/>
</linearGradient>
<linearGradient id="paint15_linear_9305_29394" x1="26.6065" y1="70.9367" x2="17.9251" y2="4.20762" gradientUnits="userSpaceOnUse">
<stop stop-color="#50AADC"/>
<stop offset="0.2121" stop-color="#5AC8FF"/>
<stop offset="0.5535" stop-color="#A4E1FF"/>
<stop offset="0.6263" stop-color="#A2E0FF"/>
<stop offset="0.6701" stop-color="#99DDFF"/>
<stop offset="0.7062" stop-color="#8BD8FF"/>
<stop offset="0.738" stop-color="#77D2FF"/>
<stop offset="0.7669" stop-color="#5DC9FF"/>
<stop offset="0.7697" stop-color="#5AC8FF"/>
<stop offset="0.9879" stop-color="#0078AA"/>
</linearGradient>
<linearGradient id="paint16_linear_9305_29394" x1="49.6612" y1="41.336" x2="-1.31456" y2="39.9701" gradientUnits="userSpaceOnUse">
<stop stop-color="white"/>
<stop offset="1" stop-color="#0078AA"/>
</linearGradient>
</defs>
</svg>
