<?xml version="1.0" encoding="UTF-8"?> <svg xmlns="http://www.w3.org/2000/svg" width="32" height="32" viewBox="0 0 32 32" fill="none"><path d="M6.66699 1.58252H16C17.3863 1.58434 18.7322 2.03413 19.8389 2.86084L20.0566 3.03076C21.2022 3.9659 21.9902 5.26785 22.2881 6.71631L22.3291 6.91553H25.333C26.928 6.91744 28.461 7.51296 29.6377 8.57861L29.8682 8.79736C31.0711 10.0003 31.7479 11.6314 31.75 13.3325V19.9995C31.7469 21.0658 31.4088 22.1022 30.7861 22.9634L30.6572 23.1333C29.9524 24.0266 28.9682 24.6576 27.8623 24.9253L27.6309 24.9819L27.6758 25.2153C27.7131 25.4094 27.7369 25.606 27.7471 25.8032L27.7529 26.0005C27.7526 27.1714 27.287 28.2946 26.459 29.1226C25.6307 29.9507 24.5072 30.4155 23.3359 30.4155C22.1646 30.4155 21.0411 29.9507 20.2129 29.1226C19.3851 28.2948 18.9195 27.172 18.9189 26.0015C18.9209 25.7903 18.9383 25.5793 18.9707 25.3706L19.0156 25.0825H12.9902L13.0342 25.3696C13.1185 25.9257 13.0956 26.4924 12.9678 27.0386L12.9072 27.271C12.727 27.8878 12.4135 28.4574 11.9902 28.9409C11.6197 29.3641 11.1727 29.7126 10.6729 29.9673L10.4561 30.0708C9.86858 30.331 9.23127 30.4592 8.58887 30.4478L8.34863 30.437C7.86901 30.4023 7.39834 30.2895 6.95508 30.103L6.73633 30.0044C6.15841 29.7234 5.64797 29.3191 5.24219 28.8208C4.83656 28.3226 4.54483 27.7414 4.38672 27.1187C4.22865 26.4959 4.20825 25.8458 4.32715 25.2144L4.37109 24.981L4.13965 24.9253C3.10258 24.6748 2.17279 24.1046 1.47949 23.2983L1.34375 23.1343C0.682513 22.2968 0.302398 21.2739 0.254883 20.2114L0.25 19.9985V7.99951L0.257812 7.68115C0.332928 6.20162 0.917726 4.79293 1.91211 3.69482L2.13184 3.46436C3.25957 2.33662 4.76333 1.67082 6.34863 1.59033L6.66699 1.58252ZM21.2236 25.2437C21.1546 25.4243 21.1108 25.6132 21.0928 25.8052L21.083 25.9985V25.9995C21.0831 26.5216 21.2648 27.025 21.5928 27.4253L21.7422 27.5903C22.1641 28.0122 22.7364 28.2494 23.333 28.2495C23.8553 28.2495 24.3594 28.0679 24.7598 27.7397L24.9248 27.5903C25.3466 27.1685 25.5829 26.5961 25.583 25.9995V25.9985C25.5823 25.7404 25.5346 25.4848 25.4424 25.2437L25.3818 25.0825H21.2852L21.2236 25.2437ZM6.66699 3.74951C5.61023 3.74951 4.59409 4.14315 3.81445 4.84912L3.66113 4.99365C2.8641 5.79068 2.41699 6.87234 2.41699 7.99951V19.9995C2.41708 20.7729 2.7236 21.5151 3.27051 22.062C3.81741 22.6089 4.55958 22.9154 5.33301 22.9155H20.25V7.99951C20.25 6.94283 19.8563 5.92658 19.1504 5.14697L19.0049 4.99365C18.2079 4.19683 17.127 3.74951 16 3.74951H6.66699ZM22.417 22.9155H26.667C27.3436 22.9155 27.9958 22.6804 28.5146 22.2554L28.7295 22.062C29.2764 21.5151 29.5829 20.7729 29.583 19.9995V17.0825H22.417V22.9155ZM22.417 14.9155H29.583V13.3325C29.583 12.2757 29.1895 11.2596 28.4834 10.48L28.3389 10.3276C27.5418 9.53061 26.4602 9.08252 25.333 9.08252H22.417V14.9155ZM10.917 25.9985C10.9161 25.7406 10.8682 25.4847 10.7764 25.2437L10.7148 25.0825H6.61816L6.55664 25.2437C6.4878 25.4243 6.44386 25.6133 6.42578 25.8052L6.41699 25.9985V25.9995C6.41707 26.5215 6.59786 27.025 6.92578 27.4253L7.0752 27.5903C7.49715 28.0123 8.07026 28.2495 8.66699 28.2495C9.18904 28.2494 9.69247 28.0678 10.0928 27.7397L10.2578 27.5903C10.6797 27.1684 10.9169 26.5961 10.917 25.9995V25.9985Z" fill="white" stroke="#00283B" stroke-width="0.5"></path></svg> 