<?xml version="1.0" encoding="UTF-8"?> <svg xmlns="http://www.w3.org/2000/svg" width="40" height="40" viewBox="0 0 40 40" fill="none"><path d="M20 1.91565C21.8627 1.91807 23.6674 2.56291 25.1104 3.74084C26.5534 4.91882 27.5466 6.55788 27.9219 8.38245L27.9629 8.58264H31.666L32.0674 8.59241C34.0644 8.6938 35.9593 9.53213 37.3799 10.9528C38.8951 12.4681 39.7474 14.5227 39.75 16.6656V24.9987L39.7432 25.2672C39.6833 26.6078 39.2051 27.8986 38.3711 28.9557C37.4814 30.0833 36.2388 30.8795 34.8428 31.2174L34.6113 31.274L34.6562 31.5074C34.7034 31.7528 34.7332 32.0013 34.7461 32.2506L34.7529 32.5006C34.7525 33.9808 34.1648 35.4002 33.1182 36.4469C32.0711 37.494 30.6507 38.0826 29.1699 38.0826C27.6892 38.0826 26.2687 37.494 25.2217 36.4469C24.1753 35.4005 23.5876 33.9813 23.5869 32.5016C23.5894 32.2346 23.6113 31.9676 23.6523 31.7037L23.6973 31.4156H16.3105L16.3545 31.7028C16.4763 32.5059 16.4212 33.3263 16.1934 34.1061C15.9655 34.8858 15.5702 35.6062 15.0352 36.2174C14.5001 36.8286 13.8384 37.3162 13.0957 37.6451C12.3529 37.9741 11.5466 38.1372 10.7344 38.1227C9.92226 38.1082 9.12304 37.9164 8.39258 37.5612C7.66213 37.2059 7.0178 36.6958 6.50488 36.066C5.99191 35.4361 5.62277 34.7011 5.42285 33.9137C5.22302 33.1264 5.19735 32.3047 5.34766 31.5065L5.3916 31.2731L5.16016 31.2174C3.76378 30.8801 2.5211 30.0841 1.63086 28.9567C0.740627 27.8291 0.254116 26.4353 0.25 24.9987V9.99963C0.252567 7.85651 1.1047 5.80119 2.62012 4.28577C4.04074 2.86514 5.93559 2.02779 7.93262 1.92639L8.33398 1.91565H20ZM8.25488 31.5768C8.17079 31.7974 8.11681 32.028 8.09473 32.2623L8.08301 32.4977V32.4987C8.08301 33.228 8.37295 33.9282 8.88867 34.444C9.4043 34.9595 10.1039 35.2486 10.833 35.2487C11.5624 35.2487 12.2626 34.9597 12.7783 34.444C13.294 33.9282 13.583 33.228 13.583 32.4987H13.333L13.583 32.4977C13.5818 32.1829 13.5242 31.8709 13.4121 31.5768L13.3506 31.4156H8.31641L8.25488 31.5768ZM26.5879 31.5768C26.4754 31.871 26.4178 32.1836 26.417 32.4987L26.4297 32.7711C26.4923 33.4006 26.7705 33.9928 27.2217 34.444C27.7374 34.9597 28.4376 35.2487 29.167 35.2487C29.8961 35.2486 30.5957 34.9595 31.1113 34.444C31.6271 33.9282 31.917 33.228 31.917 32.4987L31.9053 32.2623C31.8833 32.028 31.8294 31.7973 31.7451 31.5768L31.6836 31.4156H26.6494L26.5879 31.5768ZM8.33301 4.74866C6.94074 4.74874 5.60558 5.30225 4.62109 6.28674C3.6366 7.27123 3.08309 8.60639 3.08301 9.99866V24.9987C3.08301 25.949 3.46081 26.8608 4.13281 27.5328C4.80482 28.2048 5.71663 28.5826 6.66699 28.5826H25.25V9.99866C25.2499 8.60639 24.6964 7.27123 23.7119 6.28674C22.7274 5.30228 21.3923 4.74866 20 4.74866H8.33301ZM28.083 28.5826H33.333C34.2834 28.5826 35.1952 28.2048 35.8672 27.5328C36.5392 26.8608 36.917 25.949 36.917 24.9987V21.4156H28.083V28.5826ZM28.083 18.5826H36.917V16.6656L36.9102 16.4049C36.8457 15.1075 36.3017 13.8767 35.3789 12.9537C34.3944 11.9692 33.0593 11.4157 31.667 11.4156H28.083V18.5826Z" fill="#00283B" stroke="white" stroke-width="0.5"></path></svg> 