<svg id="Layer_1" data-name="Layer 1" xmlns="http://www.w3.org/2000/svg" viewBox="0 0 1279.04 295.3"><defs><style>.cls-1,.cls-2{fill:#00283b;}.cls-2{fill-rule:evenodd;}</style></defs><path class="cls-1" d="M11.3,58.14A31.26,31.26,0,0,1,.92,34.29,31.68,31.68,0,0,1,11.3,10.07Q21.68.43,38.07.42q16,0,26.41,9.65A31.67,31.67,0,0,1,74.85,34.29,31.25,31.25,0,0,1,64.48,58.14Q54.1,67.8,38.07,67.79,21.68,67.79,11.3,58.14ZM69,88.92V292.15H6.75V88.92Z"/><path class="cls-1" d="M285.56,109.86q21.3,23.13,21.3,63.56V292.15H245V181.79q0-20.39-10.56-31.68T206,138.81q-17.85,0-28.41,11.3T167,181.79V292.15H104.73V88.92H167v27A65.82,65.82,0,0,1,192.5,94.56q16-7.83,36.06-7.83Q264.25,86.73,285.56,109.86Z"/><path class="cls-1" d="M382.68,282.31a93.28,93.28,0,0,1-37.51-36.42q-13.65-23.67-13.66-55.36,0-31.32,13.84-55.17a94,94,0,0,1,37.88-36.61Q407.26,86,437.13,86T491,98.75a94,94,0,0,1,37.87,36.61q13.85,23.85,13.84,55.17t-14,55.18a94.77,94.77,0,0,1-38.24,36.6q-24.23,12.75-54.09,12.75T382.68,282.31Zm84.14-54.26q12.56-13.11,12.56-37.52T467.18,153a39.44,39.44,0,0,0-30.05-13.11q-18.21,0-30.23,12.93t-12,37.69q0,24.41,11.84,37.52a38.31,38.31,0,0,0,29.68,13.11A40.59,40.59,0,0,0,466.82,228.05Z"/><path class="cls-1" d="M835.14,282.31a93.28,93.28,0,0,1-37.51-36.42Q784,222.22,784,190.53q0-31.32,13.84-55.17a94,94,0,0,1,37.88-36.61Q859.72,86,889.59,86t53.9,12.75a94,94,0,0,1,37.88,36.61q13.85,23.85,13.84,55.17t-14,55.18A94.77,94.77,0,0,1,943,282.31q-24.23,12.75-54.09,12.75T835.14,282.31Zm84.13-54.26q12.57-13.11,12.57-37.52T919.64,153a39.44,39.44,0,0,0-30-13.11q-18.21,0-30.23,12.93t-12,37.69q0,24.41,11.84,37.52a38.3,38.3,0,0,0,29.68,13.11A40.56,40.56,0,0,0,919.27,228.05Z"/><path class="cls-1" d="M1130.33,140.64h-33.51V292.15h-62.28V140.64H1012V88.92h22.58V83.09q0-37.5,21.49-57t63-19.48q6.92,0,10.2.36V59.78q-17.85-1.1-25.13,5.1t-7.29,22.22v1.82h33.51Z"/><path class="cls-1" d="M1279,239.34v52.81h-31.69q-33.87,0-52.81-16.57t-18.94-54.09V140.64h-24.76V88.92h24.76V39.39h62.28V88.92h40.79v51.72h-40.79v81.58q0,9.1,4.37,13.11t14.57,4Z"/><path class="cls-2" d="M655.43,146.35,595.09,86l-44,44,59,60.71-58.76,60.43,43.88,43.88,60.18-60.29Z"/><path class="cls-1" d="M761.43,292c-54,0-98-45.43-98-101.27s44-101.27,98-101.27v63.17c-18.86,0-34.82,17.44-34.82,38.1s16,38.1,34.82,38.1Z"/></svg>