<svg width="20" height="21" viewBox="0 0 20 21" fill="none" xmlns="http://www.w3.org/2000/svg">
<g clip-path="url(#clip0_11063_4837)">
<path d="M4.07569 13.5256C6.04834 15.8837 8.42297 17.7403 11.1333 19.054C12.1652 19.543 13.5452 20.1232 15.0827 20.2227C15.1781 20.2268 15.2692 20.231 15.3645 20.231C16.3965 20.231 17.2253 19.8746 17.9008 19.141C17.9049 19.1369 17.9132 19.1286 17.9174 19.1203C18.1577 18.8302 18.4313 18.5691 18.7172 18.2915C18.912 18.105 19.1109 17.9102 19.3015 17.7113C20.1843 16.7913 20.1843 15.6226 19.2933 14.7316L16.8026 12.2409C16.3799 11.8016 15.8743 11.5695 15.3438 11.5695C14.8134 11.5695 14.3036 11.8016 13.8685 12.2368L12.3848 13.7204C12.2481 13.6416 12.1072 13.5712 11.9746 13.5049C11.8088 13.422 11.6555 13.3433 11.5187 13.2562C10.1677 12.3984 8.941 11.2794 7.76819 9.8414C7.17557 9.0913 6.77772 8.46138 6.50006 7.81902C6.88961 7.46676 7.25431 7.09793 7.60656 6.73738C7.73089 6.60891 7.85936 6.48044 7.98783 6.35197C8.43541 5.90439 8.67577 5.38637 8.67577 4.86005C8.67577 4.33373 8.43955 3.81571 7.98783 3.36813L6.75286 2.13315C6.60781 1.98811 6.47105 1.8472 6.33014 1.70215C6.05663 1.42035 5.77068 1.13025 5.48887 0.869167C5.06201 0.450601 4.56056 0.230957 4.0301 0.230957C3.50379 0.230957 2.99819 0.450601 2.55476 0.873311L1.00482 2.42325C0.44121 2.98686 0.122105 3.67066 0.055798 4.4622C-0.0229422 5.45267 0.159403 6.5053 0.631844 7.77758C1.35708 9.74608 2.45116 11.5737 4.07569 13.5256ZM1.06699 4.54923C1.11672 3.99805 1.32807 3.53804 1.72592 3.1402L3.26757 1.59855C3.50793 1.36647 3.77316 1.24629 4.0301 1.24629C4.2829 1.24629 4.53984 1.36647 4.77606 1.60684C5.05373 1.86378 5.31481 2.13315 5.59662 2.4191C5.73752 2.56415 5.88257 2.7092 6.02762 2.85839L7.26259 4.09337C7.51954 4.35031 7.65215 4.6114 7.65215 4.86834C7.65215 5.12528 7.51954 5.38637 7.26259 5.64331C7.13412 5.77178 7.00565 5.90439 6.87718 6.03286C6.49177 6.42242 6.13122 6.79126 5.73338 7.14351C5.72509 7.1518 5.72094 7.15595 5.71266 7.16424C5.36869 7.50821 5.42256 7.8356 5.50545 8.08425C5.50959 8.09668 5.51373 8.10497 5.51788 8.11741C5.83698 8.88409 6.28041 9.61347 6.9725 10.4838C8.21576 12.0171 9.52534 13.2065 10.9675 14.1224C11.1457 14.2384 11.3364 14.3296 11.5146 14.4208C11.6803 14.5036 11.8337 14.5824 11.9704 14.6694C11.987 14.6777 11.9994 14.686 12.016 14.6943C12.1528 14.7647 12.2854 14.7979 12.418 14.7979C12.7495 14.7979 12.965 14.5865 13.0355 14.5161L14.5854 12.9661C14.8258 12.7258 15.0869 12.5973 15.3438 12.5973C15.6588 12.5973 15.9157 12.7921 16.0773 12.9661L18.5763 15.461C19.0736 15.9583 19.0695 16.497 18.5639 17.0233C18.3898 17.2098 18.2075 17.388 18.0127 17.5745C17.7226 17.8563 17.4201 18.1464 17.1466 18.4738C16.67 18.9877 16.1022 19.2281 15.3687 19.2281C15.2982 19.2281 15.2236 19.2239 15.1532 19.2198C13.7939 19.1327 12.5299 18.6023 11.5809 18.1506C9.00317 16.9031 6.74042 15.1336 4.86309 12.8874C3.3173 11.0266 2.2771 9.29436 1.58916 7.43775C1.1623 6.29809 1.00068 5.38222 1.06699 4.54923Z" fill="white"/>
</g>
<defs>
<clipPath id="clip0_11063_4837">
<rect width="20" height="20" fill="white" transform="translate(0 0.230957)"/>
</clipPath>
</defs>
</svg>
