<svg width="48" height="42" viewBox="0 0 48 42" fill="none" xmlns="http://www.w3.org/2000/svg">
<path d="M43.5 21H36V15C36 11.7188 38.625 9 42 9H42.75C43.9688 9 45 8.0625 45 6.75V2.25C45 1.03125 43.9688 0 42.75 0H42C33.6562 0 27 6.75 27 15V37.5C27 40.0312 28.9688 42 31.5 42H43.5C45.9375 42 48 40.0312 48 37.5V25.5C48 23.0625 45.9375 21 43.5 21ZM16.5 21H9V15C9 11.7188 11.625 9 15 9H15.75C16.9688 9 18 8.0625 18 6.75V2.25C18 1.03125 16.9688 0 15.75 0H15C6.65625 0 0 6.75 0 15V37.5C0 40.0312 1.96875 42 4.5 42H16.5C18.9375 42 21 40.0312 21 37.5V25.5C21 23.0625 18.9375 21 16.5 21Z" fill="#D1D8DC"/>
</svg>
