<svg width="36" height="33" viewBox="0 0 36 33" fill="none" xmlns="http://www.w3.org/2000/svg">
<path d="M32.625 16.5C34.4531 16.5 36 18.0469 36 19.875V28.875C36 30.7734 34.4531 32.25 32.625 32.25H23.625C21.7266 32.25 20.25 30.7734 20.25 28.875V12C20.25 5.8125 25.2422 0.75 31.5 0.75H32.0625C32.9766 0.75 33.75 1.52344 33.75 2.4375V5.8125C33.75 6.79688 32.9766 7.5 32.0625 7.5H31.5C28.9688 7.5 27 9.53906 27 12V16.5H32.625ZM12.375 16.5C14.2031 16.5 15.75 18.0469 15.75 19.875V28.875C15.75 30.7734 14.2031 32.25 12.375 32.25H3.375C1.47656 32.25 0 30.7734 0 28.875V12C0 5.8125 4.99219 0.75 11.25 0.75H11.8125C12.7266 0.75 13.5 1.52344 13.5 2.4375V5.8125C13.5 6.79688 12.7266 7.5 11.8125 7.5H11.25C8.71875 7.5 6.75 9.53906 6.75 12V16.5H12.375Z" fill="#D1D8DC"/>
</svg>
